{
	"patcher" : 	{
		"fileversion" : 1,
		"appversion" : 		{
			"major" : 8,
			"minor" : 1,
			"revision" : 2,
			"architecture" : "x64",
			"modernui" : 1
		}
,
		"classnamespace" : "box",
		"rect" : [ 876.0, 292.0, 908.0, 632.0 ],
		"bglocked" : 0,
		"openinpresentation" : 0,
		"default_fontsize" : 12.0,
		"default_fontface" : 0,
		"default_fontname" : "Arial",
		"gridonopen" : 1,
		"gridsize" : [ 15.0, 15.0 ],
		"gridsnaponopen" : 1,
		"objectsnaponopen" : 1,
		"statusbarvisible" : 2,
		"toolbarvisible" : 1,
		"lefttoolbarpinned" : 0,
		"toptoolbarpinned" : 0,
		"righttoolbarpinned" : 0,
		"bottomtoolbarpinned" : 0,
		"toolbars_unpinned_last_save" : 0,
		"tallnewobj" : 0,
		"boxanimatetime" : 200,
		"enablehscroll" : 1,
		"enablevscroll" : 1,
		"devicewidth" : 0.0,
		"description" : "",
		"digest" : "",
		"tags" : "",
		"style" : "",
		"subpatcher_template" : "",
		"boxes" : [ 			{
				"box" : 				{
					"bubble" : 1,
					"bubbleside" : 3,
					"id" : "obj-15",
					"maxclass" : "comment",
					"numinlets" : 1,
					"numoutlets" : 0,
					"patching_rect" : [ 51.0, 311.428571428571502, 136.0, 24.0 ],
					"text" : "Ресинтезируем"
				}

			}
, 			{
				"box" : 				{
					"bubble" : 1,
					"bubbleside" : 3,
					"id" : "obj-13",
					"linecount" : 2,
					"maxclass" : "comment",
					"numinlets" : 1,
					"numoutlets" : 0,
					"patching_rect" : [ 37.0, 248.0, 150.0, 38.0 ],
					"presentation_linecount" : 2,
					"text" : "Применяем маску к результату БПФ"
				}

			}
, 			{
				"box" : 				{
					"bubble" : 1,
					"bubbleside" : 3,
					"id" : "obj-11",
					"linecount" : 3,
					"maxclass" : "comment",
					"numinlets" : 1,
					"numoutlets" : 0,
					"patching_rect" : [ 37.0, 121.428571428571445, 150.0, 52.0 ],
					"text" : "Генерируем гранулу шума и применяем окно Hanning"
				}

			}
, 			{
				"box" : 				{
					"description" : "(1. / $size)",
					"editor_interface" : "",
					"fontface" : 0,
					"fontname" : "Arial",
					"fontsize" : 12.0,
					"ftm_objref_conv" : 0,
					"ftm_scope" : 1,
					"id" : "obj-2",
					"maxclass" : "ftm.object",
					"name" : "scale",
					"numinlets" : 1,
					"numoutlets" : 2,
					"outlettype" : [ "", "" ],
					"patching_rect" : [ 554.0, 417.0, 108.666015625, 19.0 ],
					"persistence" : 0,
					"scope" : 0,
					"text" : "(1. / $size)"
				}

			}
, 			{
				"box" : 				{
					"description" : "(($size / 2) + 1)",
					"editor_interface" : "",
					"fontface" : 0,
					"fontname" : "Arial",
					"fontsize" : 12.0,
					"ftm_objref_conv" : 0,
					"ftm_scope" : 0,
					"id" : "obj-38",
					"maxclass" : "ftm.object",
					"name" : "real_size",
					"numinlets" : 1,
					"numoutlets" : 2,
					"outlettype" : [ "", "" ],
					"patching_rect" : [ 554.0, 396.0, 153.666015625, 19.0 ],
					"persistence" : 0,
					"scope" : 0,
					"text" : "(($size / 2) + 1)"
				}

			}
, 			{
				"box" : 				{
					"id" : "obj-37",
					"maxclass" : "newobj",
					"numinlets" : 1,
					"numoutlets" : 1,
					"outlettype" : [ "bang" ],
					"patching_rect" : [ 446.0, 36.428571428571416, 58.0, 22.0 ],
					"text" : "loadbang"
				}

			}
, 			{
				"box" : 				{
					"id" : "obj-34",
					"maxclass" : "comment",
					"numinlets" : 1,
					"numoutlets" : 0,
					"patching_rect" : [ 651.074188232421875, 76.428571428571416, 65.0, 20.0 ],
					"text" : "add partial"
				}

			}
, 			{
				"box" : 				{
					"id" : "obj-35",
					"maxclass" : "button",
					"numinlets" : 1,
					"numoutlets" : 1,
					"outlettype" : [ "bang" ],
					"parameter_enable" : 0,
					"patching_rect" : [ 625.074188232421875, 73.428571428571416, 24.0, 24.0 ]
				}

			}
, 			{
				"box" : 				{
					"id" : "obj-33",
					"maxclass" : "comment",
					"numinlets" : 1,
					"numoutlets" : 0,
					"patching_rect" : [ 472.0, 76.428571428571416, 35.0, 20.0 ],
					"text" : "reset"
				}

			}
, 			{
				"box" : 				{
					"id" : "obj-31",
					"maxclass" : "button",
					"numinlets" : 1,
					"numoutlets" : 1,
					"outlettype" : [ "bang" ],
					"parameter_enable" : 0,
					"patching_rect" : [ 446.0, 73.428571428571416, 24.0, 24.0 ]
				}

			}
, 			{
				"box" : 				{
					"#init" : "i = 0",
					"#loadbang" : 0,
					"#triggerall" : 0,
					"#untuple" : 0,
					"fontface" : 0,
					"fontname" : "Arial",
					"fontsize" : 12.0,
					"ftm_objref_conv" : 0,
					"ftm_scope" : 0,
					"id" : "obj-29",
					"linecount" : 3,
					"maxclass" : "ftm.mess",
					"numinlets" : 2,
					"numoutlets" : 1,
					"outlettype" : [ "" ],
					"patching_rect" : [ 625.074188232421875, 112.857142857142833, 196.0, 46.0 ],
					"presentation_linecount" : 3,
					"text" : [ "_($i = (i (random 0 ($real_size - 1))));", "_($mask[$i] = 1);", "_$mask" ]
				}

			}
, 			{
				"box" : 				{
					"ftm_objref_conv" : 0,
					"ftm_scope" : 0,
					"id" : "obj-28",
					"maxclass" : "ftm.vecdisplay",
					"minval1" : -1.0,
					"numinlets" : 5,
					"numoutlets" : 6,
					"outlettype" : [ "", "", "", "", "", "" ],
					"patching_rect" : [ 446.0, 205.428571428571416, 256.0, 128.0 ]
				}

			}
, 			{
				"box" : 				{
					"#init" : "",
					"#loadbang" : 0,
					"#triggerall" : 0,
					"#untuple" : 0,
					"fontface" : 0,
					"fontname" : "Arial",
					"fontsize" : 12.0,
					"ftm_objref_conv" : 0,
					"ftm_scope" : 0,
					"id" : "obj-12",
					"maxclass" : "ftm.mess",
					"numinlets" : 2,
					"numoutlets" : 1,
					"outlettype" : [ "" ],
					"patching_rect" : [ 189.0, 335.428571428571502, 115.39453125, 18.0 ],
					"text" : [ "_($1 reshape $size 1)" ]
				}

			}
, 			{
				"box" : 				{
					"#init" : "",
					"#loadbang" : 0,
					"#triggerall" : 0,
					"#untuple" : 0,
					"fontface" : 0,
					"fontname" : "Arial",
					"fontsize" : 12.0,
					"ftm_objref_conv" : 0,
					"ftm_scope" : 0,
					"id" : "obj-8",
					"linecount" : 3,
					"maxclass" : "ftm.mess",
					"numinlets" : 2,
					"numoutlets" : 1,
					"outlettype" : [ "" ],
					"patching_rect" : [ 189.0, 244.0, 128.0, 46.0 ],
					"presentation_linecount" : 3,
					"text" : [ "_(($1 col 0) mul $mask);", "_(($1 col 1) mul $mask);", "_($1)" ]
				}

			}
, 			{
				"box" : 				{
					"description" : "fmat",
					"editor_interface" : "wave",
					"fontface" : 0,
					"fontname" : "Arial",
					"fontsize" : 12.0,
					"ftm_objref_conv" : 0,
					"ftm_scope" : 0,
					"id" : "obj-7",
					"maxclass" : "ftm.object",
					"name" : "mask",
					"numinlets" : 1,
					"numoutlets" : 2,
					"outlettype" : [ "", "" ],
					"patching_rect" : [ 446.0, 375.0, 76.666015625, 19.0 ],
					"persistence" : 0,
					"scope" : 0,
					"text" : "fmat"
				}

			}
, 			{
				"box" : 				{
					"#init" : "",
					"#loadbang" : 0,
					"#triggerall" : 0,
					"#untuple" : 0,
					"fontface" : 0,
					"fontname" : "Arial",
					"fontsize" : 12.0,
					"ftm_objref_conv" : 0,
					"ftm_scope" : 0,
					"id" : "obj-6",
					"linecount" : 3,
					"maxclass" : "ftm.mess",
					"numinlets" : 2,
					"numoutlets" : 1,
					"outlettype" : [ "" ],
					"patching_rect" : [ 446.0, 112.857142857142833, 164.0, 46.0 ],
					"presentation_linecount" : 3,
					"text" : [ "_($mask reshape $real_size 1)", "_($mask fill 0);", "_($mask)" ]
				}

			}
, 			{
				"box" : 				{
					"description" : "1024",
					"editor_interface" : "",
					"fontface" : 0,
					"fontname" : "Arial",
					"fontsize" : 12.0,
					"ftm_objref_conv" : 0,
					"ftm_scope" : 0,
					"id" : "obj-1",
					"maxclass" : "ftm.object",
					"name" : "size",
					"numinlets" : 1,
					"numoutlets" : 2,
					"outlettype" : [ "", "" ],
					"patching_rect" : [ 554.0, 375.0, 72.666015625, 19.0 ],
					"persistence" : 0,
					"scope" : 0,
					"text" : "1024"
				}

			}
, 			{
				"box" : 				{
					"id" : "obj-27",
					"maxclass" : "toggle",
					"numinlets" : 1,
					"numoutlets" : 1,
					"outlettype" : [ "int" ],
					"parameter_enable" : 0,
					"patching_rect" : [ 189.0, 47.0, 24.0, 24.0 ]
				}

			}
, 			{
				"box" : 				{
					"id" : "obj-25",
					"maxclass" : "newobj",
					"numinlets" : 2,
					"numoutlets" : 1,
					"outlettype" : [ "signal" ],
					"patching_rect" : [ 189.0, 399.0, 40.0, 22.0 ],
					"text" : "*~ 0.5"
				}

			}
, 			{
				"box" : 				{
					"id" : "obj-24",
					"maxclass" : "ezdac~",
					"numinlets" : 2,
					"numoutlets" : 0,
					"patching_rect" : [ 189.0, 437.428571428571445, 45.0, 45.0 ]
				}

			}
, 			{
				"box" : 				{
					"id" : "obj-23",
					"maxclass" : "newobj",
					"numinlets" : 3,
					"numoutlets" : 1,
					"outlettype" : [ "signal" ],
					"patching_rect" : [ 189.0, 375.0, 52.0, 22.0 ],
					"saved_object_attributes" : 					{
						"ftm_objref_conv" : 0,
						"ftm_scope" : 0
					}
,
					"text" : "gbr.ola~"
				}

			}
, 			{
				"box" : 				{
					"id" : "obj-22",
					"maxclass" : "newobj",
					"numinlets" : 1,
					"numoutlets" : 1,
					"outlettype" : [ "" ],
					"patching_rect" : [ 189.0, 311.428571428571502, 223.0, 22.0 ],
					"saved_object_attributes" : 					{
						"ftm_objref_conv" : 0,
						"ftm_scope" : 0
					}
,
					"text" : "gbr.ifft $size @mode real @scale $scale"
				}

			}
, 			{
				"box" : 				{
					"id" : "obj-21",
					"maxclass" : "newobj",
					"numinlets" : 1,
					"numoutlets" : 1,
					"outlettype" : [ "" ],
					"patching_rect" : [ 189.0, 205.428571428571416, 139.0, 22.0 ],
					"saved_object_attributes" : 					{
						"ftm_objref_conv" : 0,
						"ftm_scope" : 0
					}
,
					"text" : "gbr.fft $size @mode real"
				}

			}
, 			{
				"box" : 				{
					"id" : "obj-20",
					"maxclass" : "newobj",
					"numinlets" : 2,
					"numoutlets" : 1,
					"outlettype" : [ "" ],
					"patching_rect" : [ 189.0, 144.428571428571416, 90.0, 22.0 ],
					"saved_object_attributes" : 					{
						"ftm_objref_conv" : 0,
						"ftm_scope" : 0
					}
,
					"text" : "gbr.wind= hann"
				}

			}
, 			{
				"box" : 				{
					"#init" : "",
					"#loadbang" : 0,
					"#triggerall" : 0,
					"#untuple" : 0,
					"fontface" : 0,
					"fontname" : "Arial",
					"fontsize" : 12.0,
					"ftm_objref_conv" : 0,
					"ftm_scope" : 2,
					"id" : "obj-17",
					"maxclass" : "ftm.mess",
					"numinlets" : 2,
					"numoutlets" : 1,
					"outlettype" : [ "" ],
					"patching_rect" : [ 189.0, 124.428571428571416, 180.05859375, 18.0 ],
					"text" : [ "_((new fmat $size 1) random -1 1)" ]
				}

			}
, 			{
				"box" : 				{
					"id" : "obj-14",
					"maxclass" : "newobj",
					"numinlets" : 2,
					"numoutlets" : 1,
					"outlettype" : [ "bang" ],
					"patching_rect" : [ 189.0, 86.0, 63.0, 22.0 ],
					"text" : "metro 300"
				}

			}
 ],
		"lines" : [ 			{
				"patchline" : 				{
					"destination" : [ "obj-23", 0 ],
					"source" : [ "obj-12", 0 ]
				}

			}
, 			{
				"patchline" : 				{
					"destination" : [ "obj-17", 0 ],
					"source" : [ "obj-14", 0 ]
				}

			}
, 			{
				"patchline" : 				{
					"destination" : [ "obj-20", 0 ],
					"source" : [ "obj-17", 0 ]
				}

			}
, 			{
				"patchline" : 				{
					"destination" : [ "obj-21", 0 ],
					"source" : [ "obj-20", 0 ]
				}

			}
, 			{
				"patchline" : 				{
					"destination" : [ "obj-8", 0 ],
					"source" : [ "obj-21", 0 ]
				}

			}
, 			{
				"patchline" : 				{
					"destination" : [ "obj-12", 0 ],
					"source" : [ "obj-22", 0 ]
				}

			}
, 			{
				"patchline" : 				{
					"destination" : [ "obj-25", 0 ],
					"source" : [ "obj-23", 0 ]
				}

			}
, 			{
				"patchline" : 				{
					"destination" : [ "obj-24", 1 ],
					"order" : 0,
					"source" : [ "obj-25", 0 ]
				}

			}
, 			{
				"patchline" : 				{
					"destination" : [ "obj-24", 0 ],
					"order" : 1,
					"source" : [ "obj-25", 0 ]
				}

			}
, 			{
				"patchline" : 				{
					"destination" : [ "obj-14", 0 ],
					"source" : [ "obj-27", 0 ]
				}

			}
, 			{
				"patchline" : 				{
					"destination" : [ "obj-28", 0 ],
					"source" : [ "obj-29", 0 ]
				}

			}
, 			{
				"patchline" : 				{
					"destination" : [ "obj-6", 0 ],
					"source" : [ "obj-31", 0 ]
				}

			}
, 			{
				"patchline" : 				{
					"destination" : [ "obj-29", 0 ],
					"source" : [ "obj-35", 0 ]
				}

			}
, 			{
				"patchline" : 				{
					"destination" : [ "obj-31", 0 ],
					"source" : [ "obj-37", 0 ]
				}

			}
, 			{
				"patchline" : 				{
					"destination" : [ "obj-28", 0 ],
					"source" : [ "obj-6", 0 ]
				}

			}
, 			{
				"patchline" : 				{
					"destination" : [ "obj-22", 0 ],
					"source" : [ "obj-8", 0 ]
				}

			}
 ],
		"dependency_cache" : [ 			{
				"name" : "ftm.mess.mxe64",
				"type" : "mx64"
			}
, 			{
				"name" : "gbr.wind=.mxe64",
				"type" : "mx64"
			}
, 			{
				"name" : "gbr.fft.mxe64",
				"type" : "mx64"
			}
, 			{
				"name" : "gbr.ifft.mxe64",
				"type" : "mx64"
			}
, 			{
				"name" : "gbr.ola~.mxe64",
				"type" : "mx64"
			}
, 			{
				"name" : "ftm.object.mxe64",
				"type" : "mx64"
			}
, 			{
				"name" : "ftm.vecdisplay.mxe64",
				"type" : "mx64"
			}
 ],
		"autosave" : 0
	}

}
